<?xml version="1.0" encoding="UTF-8"?>
<svg xmlns="http://www.w3.org/2000/svg" xmlns:xlink="http://www.w3.org/1999/xlink" width="144px" height="144px" viewBox="0 0 144 144" version="1.1">
<g id="surface1">
<path style=" stroke:none;fill-rule:nonzero;fill:rgb(0%,0%,0%);fill-opacity:1;" d="M 34.011719 2.625 C 31.929688 3.640625 30.125 4.191406 29.058594 4.234375 C 28.085938 4.234375 27.300781 4.40625 27.300781 4.617188 C 27.300781 5.464844 28.875 6.015625 32.160156 6.226562 C 35.398438 6.4375 35.816406 6.605469 37.621094 8.046875 L 39.5625 9.65625 L 37.988281 15.417969 C 37.15625 18.636719 36.554688 21.304688 36.648438 21.429688 C 36.785156 21.515625 40.628906 21.558594 45.207031 21.515625 L 53.582031 21.386719 L 51.175781 14.0625 L 48.816406 6.734375 L 46.964844 5.800781 C 45.949219 5.25 43.355469 3.980469 41.183594 2.921875 L 37.25 1.015625 Z M 34.011719 2.625 "/>
<path style=" stroke:none;fill-rule:nonzero;fill:rgb(0%,0%,0%);fill-opacity:1;" d="M 33.175781 22.617188 C 30.910156 23.378906 29.753906 24.3125 29.476562 25.75 C 29.152344 27.273438 30.167969 28.671875 31.972656 29.011719 C 32.945312 29.222656 33.269531 29.433594 32.851562 29.648438 C 31.929688 30.15625 31.003906 29.730469 28.6875 27.699219 C 26.097656 25.410156 22.996094 24.140625 18.832031 23.675781 C 14.160156 23.125 13.929688 23.464844 16.75 26.46875 C 18.046875 27.867188 19.386719 29.648438 19.757812 30.410156 C 20.824219 32.738281 21.007812 36.382812 20.222656 39.8125 C 19.203125 44.300781 18.785156 45.0625 16.425781 47.140625 L 14.34375 49.003906 L 16.980469 50.613281 C 20.914062 52.984375 24.292969 56.328125 25.171875 58.703125 C 26.652344 62.765625 25.867188 69.203125 22.90625 76.445312 C 20.867188 81.488281 18.972656 89.28125 18.972656 92.667969 C 18.972656 96.648438 20.265625 105.375 21.46875 109.777344 C 22.628906 113.886719 27.207031 122.613281 30.769531 127.480469 L 32.296875 129.558594 L 28.734375 131.082031 C 26.792969 131.929688 24.753906 133.03125 24.199219 133.496094 C 22.949219 134.597656 22.8125 136.417969 23.96875 137.308594 C 25.867188 138.832031 27.160156 139.128906 33.316406 139.382812 C 36.742188 139.511719 41.550781 139.933594 43.957031 140.359375 C 47.660156 141.035156 49.835938 141.121094 57.839844 140.910156 C 63.070312 140.78125 69.085938 140.441406 71.257812 140.1875 C 74.914062 139.765625 75.285156 139.636719 76.582031 138.238281 C 77.921875 136.800781 78.246094 136.671875 84.679688 135.53125 C 95.785156 133.453125 99.855469 131.761719 105.410156 126.71875 C 108.417969 124.050781 111.5625 119.476562 112.671875 116.257812 C 113.691406 113.292969 114.109375 105.714844 113.414062 102.535156 C 113.089844 101.097656 111.378906 97.03125 109.621094 93.472656 C 104.113281 82.589844 103.511719 79.75 105.734375 75.175781 C 108.554688 69.289062 112.117188 66.75 117.484375 66.75 C 120.308594 66.75 120.539062 66.832031 121.972656 68.316406 C 123.546875 69.839844 123.546875 69.925781 123.546875 73.90625 C 123.546875 78.648438 124.195312 80.214844 126.554688 81.148438 C 131.507812 83.054688 136.320312 80.765625 139.09375 75.21875 C 140.160156 73.101562 140.296875 72.382812 140.019531 70.222656 C 139.417969 64.925781 136.226562 61.242188 130.164062 58.914062 C 127.109375 57.726562 126.371094 57.601562 121.742188 57.601562 C 117.441406 57.601562 116.144531 57.769531 113.273438 58.703125 C 107.816406 60.523438 105.824219 61.625 102.910156 64.503906 C 97.125 70.222656 95.550781 74.117188 95.921875 81.742188 C 96.152344 87.078125 96.800781 89.109375 101.753906 99.785156 C 103.929688 104.570312 104.113281 105.203125 104.113281 108.382812 C 104.113281 112.871094 103.003906 115.582031 99.761719 118.84375 C 98.421875 120.238281 96.199219 121.890625 94.90625 122.527344 C 92.914062 123.542969 92.128906 123.714844 89.675781 123.585938 L 86.761719 123.457031 L 86.53125 118.335938 C 86.296875 113.71875 86.160156 112.996094 84.816406 110.5 C 81.996094 105.332031 79.542969 102.453125 71.167969 94.53125 C 61.867188 85.808594 59.367188 83.011719 56.082031 77.546875 L 53.90625 73.90625 L 53.90625 64.503906 L 55.664062 62.554688 C 57.65625 60.351562 64.644531 55.609375 69.640625 53.152344 C 71.445312 52.261719 72.972656 51.457031 73.0625 51.375 C 73.203125 51.289062 72.832031 50.824219 72.277344 50.273438 C 69.917969 47.984375 68.019531 42.734375 68.019531 38.625 C 68.019531 35.449219 68.851562 33.5 71.539062 30.453125 C 72.925781 28.882812 74.035156 27.445312 74.035156 27.273438 C 74.035156 27.105469 72.371094 27.148438 70.335938 27.273438 C 67.558594 27.53125 65.707031 27.953125 63.207031 29.011719 C 61.3125 29.773438 59.644531 30.621094 59.460938 30.875 C 59.320312 31.128906 58.535156 31.636719 57.792969 31.976562 C 56.546875 32.613281 56.3125 32.570312 54.601562 31.679688 C 53.582031 31.128906 52.75 30.621094 52.75 30.492188 C 52.75 30.367188 54 29.945312 55.480469 29.519531 C 58.257812 28.714844 59.089844 28.121094 60.109375 26.34375 C 60.570312 25.539062 60.570312 25.15625 59.96875 24.394531 C 58.71875 22.574219 53.628906 21.089844 54.324219 22.703125 C 55.296875 24.988281 55.203125 25.285156 53.214844 26.003906 C 48.355469 27.785156 41.785156 27.742188 36.878906 25.960938 C 35.121094 25.285156 35.074219 25.242188 35.351562 23.632812 C 35.675781 21.855469 35.628906 21.8125 33.175781 22.617188 Z M 24.753906 28.546875 C 25.496094 29.011719 26.746094 30.027344 27.441406 30.789062 C 29.289062 32.695312 31.695312 33.078125 35.859375 32.105469 C 41.644531 30.707031 49.835938 32.019531 54.648438 35.195312 C 55.851562 35.957031 56.222656 36.042969 57.425781 35.578125 C 58.164062 35.28125 59.691406 34.433594 60.753906 33.714844 C 62.605469 32.484375 66.167969 30.789062 66.449219 31.003906 C 66.492188 31.085938 66.125 32.273438 65.613281 33.671875 C 64.363281 37.058594 64.644531 41.71875 66.355469 46.164062 C 67.050781 47.902344 67.695312 49.636719 67.835938 50.019531 C 68.019531 50.441406 67.648438 50.867188 66.769531 51.203125 C 63.761719 52.476562 55.25 58.363281 53.167969 60.648438 C 51.175781 62.808594 50.945312 63.316406 50.667969 65.902344 C 50.019531 71.109375 50.667969 74.160156 53.214844 78.734375 C 56.40625 84.410156 59.320312 87.796875 66.816406 94.660156 C 75.378906 102.492188 78.664062 106.09375 80.882812 110.03125 C 83.058594 113.84375 83.289062 114.820312 83.429688 120.410156 C 83.523438 124.433594 83.566406 124.644531 84.816406 125.617188 C 85.972656 126.507812 86.574219 126.636719 89.816406 126.636719 C 93.980469 126.636719 95.460938 126.128906 99.394531 123.289062 C 104.808594 119.351562 107.351562 114.566406 107.351562 108.296875 C 107.351562 104.78125 107.167969 104.019531 105.6875 100.800781 C 99.996094 88.390625 99.347656 86.441406 99.117188 81.613281 C 98.882812 76.277344 99.394531 74.117188 101.707031 70.730469 C 106.425781 63.824219 112.859375 60.566406 121.882812 60.566406 C 126.140625 60.566406 126.832031 60.691406 129.332031 61.835938 C 134.144531 63.996094 136.226562 66.28125 136.78125 70.050781 C 137.382812 73.949219 133.773438 78.777344 130.210938 78.777344 C 127.0625 78.777344 126.785156 78.394531 126.785156 73.863281 C 126.785156 69.628906 126.324219 68.144531 124.289062 66.15625 C 120.863281 62.683594 112.8125 63.019531 108.230469 66.832031 C 104.066406 70.222656 101.335938 75.472656 101.335938 79.921875 C 101.335938 83.222656 102.308594 85.890625 106.425781 94.234375 C 108.183594 97.707031 109.804688 101.394531 110.128906 102.410156 C 111.148438 105.925781 110.589844 113.632812 109.0625 116.808594 C 107.722656 119.648438 103.929688 124.179688 101.011719 126.382812 C 96.988281 129.429688 92.683594 131.082031 85.003906 132.394531 C 81.625 132.988281 78.476562 133.539062 77.921875 133.664062 C 77.414062 133.75 76.027344 134.554688 74.914062 135.445312 L 72.878906 137.097656 L 66.957031 137.605469 C 57.5625 138.367188 47.707031 138.199219 42.617188 137.222656 C 39.839844 136.671875 36.460938 136.375 33.269531 136.375 C 25.867188 136.375 25.035156 135.785156 29.753906 133.878906 C 31.328125 133.199219 33.824219 132.3125 35.257812 131.929688 L 37.851562 131.167969 L 35.167969 127.949219 C 31.28125 123.332031 25.726562 113.335938 24.523438 108.847656 C 23.367188 104.527344 22.210938 96.523438 22.210938 92.921875 C 22.210938 89.238281 23.644531 83.222656 25.914062 77.507812 C 29.199219 69.203125 30.03125 62.300781 28.179688 57.8125 C 27.070312 55.058594 24.476562 51.96875 21.839844 50.1875 C 19.621094 48.75 19.574219 48.453125 20.824219 47.222656 C 21.378906 46.714844 22.257812 44.46875 22.949219 42.097656 C 24.339844 37.1875 24.292969 32.949219 22.765625 29.351562 C 21.75 26.9375 22.027344 26.808594 24.753906 28.546875 Z M 24.753906 28.546875 "/>
</g>
</svg>
