<?xml version="1.0" standalone="no"?>
<!DOCTYPE svg PUBLIC "-//W3C//DTD SVG 20010904//EN"
 "http://www.w3.org/TR/2001/REC-SVG-20010904/DTD/svg10.dtd">
<svg version="1.0" xmlns="http://www.w3.org/2000/svg"
 width="311.000000pt" height="340.000000pt" viewBox="0 0 311.000000 340.000000"
 preserveAspectRatio="xMidYMid meet">

<g transform="translate(0.000000,340.000000) scale(0.100000,-0.100000)"
fill="#000000" stroke="none">
<path d="M735 3338 c-45 -24 -84 -37 -107 -38 -21 0 -38 -4 -38 -9 0 -20 34
-33 105 -38 70 -5 79 -9 118 -43 l42 -38 -34 -136 c-18 -76 -31 -139 -29 -142
3 -2 86 -3 185 -2 l181 3 -52 173 -51 173 -40 22 c-22 13 -78 43 -125 68 l-85
45 -70 -38z"/>
<path d="M717 2866 c-49 -18 -74 -40 -80 -74 -7 -36 15 -69 54 -77 21 -5 28
-10 19 -15 -20 -12 -40 -2 -90 46 -56 54 -123 84 -213 95 -101 13 -106 5 -45
-66 28 -33 57 -75 65 -93 23 -55 27 -141 10 -222 -22 -106 -31 -124 -82 -173
l-45 -44 57 -38 c85 -56 158 -135 177 -191 32 -96 15 -248 -49 -419 -44 -119
-85 -303 -85 -383 0 -94 28 -300 54 -404 25 -97 124 -303 201 -418 l33 -49
-77 -36 c-42 -20 -86 -46 -98 -57 -27 -26 -30 -69 -5 -90 41 -36 69 -43 202
-49 74 -3 178 -13 230 -23 80 -16 127 -18 300 -13 113 3 243 11 290 17 79 10
87 13 115 46 29 34 36 37 175 64 240 49 328 89 448 208 65 63 133 171 157 247
22 70 31 249 16 324 -7 34 -44 130 -82 214 -119 257 -132 324 -84 432 61 139
138 199 254 199 61 0 66 -2 97 -37 34 -36 34 -38 34 -132 0 -112 14 -149 65
-171 107 -45 211 9 271 140 23 50 26 67 20 118 -13 125 -82 212 -213 267 -66
28 -82 31 -182 31 -93 0 -121 -4 -183 -26 -118 -43 -161 -69 -224 -137 -125
-135 -159 -227 -151 -407 5 -126 19 -174 126 -426 47 -113 51 -128 51 -203 0
-106 -24 -170 -94 -247 -29 -33 -77 -72 -105 -87 -43 -24 -60 -28 -113 -25
l-63 3 -5 121 c-5 109 -8 126 -37 185 -61 122 -114 190 -295 377 -201 206
-255 272 -326 401 l-47 86 0 111 0 111 38 46 c43 52 194 164 302 222 39 21 72
40 74 42 3 2 -5 13 -17 26 -51 54 -92 178 -92 275 0 75 18 121 76 193 30 37
54 71 54 75 0 4 -36 3 -80 0 -60 -6 -100 -16 -154 -41 -41 -18 -77 -38 -81
-44 -3 -6 -20 -18 -36 -26 -27 -15 -32 -14 -69 7 -22 13 -40 25 -40 28 0 3 27
13 59 23 60 19 78 33 100 75 10 19 10 28 -3 46 -27 43 -137 78 -122 40 21 -54
19 -61 -24 -78 -105 -42 -247 -41 -353 1 -38 16 -39 17 -33 55 7 42 6 43 -47
24z m-182 -140 c16 -11 43 -35 58 -53 40 -45 92 -54 182 -31 125 33 302 2 406
-73 26 -18 34 -20 60 -9 16 7 49 27 72 44 40 29 117 69 123 64 1 -2 -7 -30
-18 -63 -27 -80 -21 -190 16 -295 15 -41 29 -82 32 -91 4 -10 -4 -20 -23 -28
-65 -30 -249 -169 -294 -223 -43 -51 -48 -63 -54 -124 -14 -123 0 -195 55
-303 69 -134 132 -214 294 -376 185 -185 256 -270 304 -363 47 -90 52 -113 55
-245 2 -95 3 -100 30 -123 25 -21 38 -24 108 -24 90 0 122 12 207 79 117 93
172 206 172 354 0 83 -4 101 -36 177 -123 293 -137 339 -142 453 -5 126 6 177
56 257 102 163 241 240 436 240 92 0 107 -3 161 -30 104 -51 149 -105 161
-194 13 -92 -65 -206 -142 -206 -68 0 -74 9 -74 116 0 100 -10 135 -54 182
-74 82 -248 74 -347 -16 -90 -80 -149 -204 -149 -309 0 -78 21 -141 110 -338
38 -82 73 -169 80 -193 22 -83 10 -265 -23 -340 -29 -67 -111 -174 -174 -226
-87 -72 -180 -111 -346 -142 -73 -14 -141 -27 -153 -30 -11 -2 -41 -21 -65
-42 l-44 -39 -128 -12 c-203 -18 -416 -14 -526 9 -60 13 -133 20 -202 20 -160
0 -178 14 -76 59 34 16 88 37 119 46 l56 18 -58 76 c-84 109 -204 345 -230
451 -25 102 -50 291 -50 376 0 87 31 229 80 364 71 196 89 359 49 465 -24 65
-80 138 -137 180 -48 34 -49 41 -22 70 12 12 31 65 46 121 30 116 29 216 -4
301 -22 57 -16 60 43 19z"/>
</g>
</svg>
